<svg viewBox="0 0 128 128" xmlns="http://www.w3.org/2000/svg">
  <defs>
    <linearGradient id="phantom-bg" x1="0%" y1="0%" x2="100%" y2="100%">
      <stop offset="0%" stop-color="#534bb1"/>
      <stop offset="100%" stop-color="#ab9ff2"/>
    </linearGradient>
  </defs>
  <rect width="128" height="128" rx="28" fill="url(#phantom-bg)"/>
  <path d="M110.4 64.4c0-22.1-18-40-40.3-40H68c-22.3 0-40.4 17.9-40.4 40v23.3c0 3.6 4.3 5.4 6.8 2.9l3.5-3.5a3.8 3.8 0 0 1 5.4 0l5.1 5.1a3.8 3.8 0 0 0 5.4 0l5.1-5.1a3.8 3.8 0 0 1 5.4 0l5.1 5.1a3.8 3.8 0 0 0 5.4 0l5.1-5.1a3.8 3.8 0 0 1 5.4 0l3.5 3.5c2.5 2.5 6.8.7 6.8-2.9V64.4z" fill="#fff"/>
  <circle cx="53" cy="62" r="6.5" fill="#534bb1"/>
  <circle cx="77" cy="62" r="6.5" fill="#534bb1"/>
</svg>
